BenchTwelve-Regular.ufo
<glyph name="exclam" format="1">
  <advance width="541"/>
  <unicode hex="0021"/>
  <outline>
    <contour>
      <point x="215" y="0" type="line" smooth="yes"/>
      <point x="172" y="0"/>
      <point x="148" y="24"/>
      <point x="148" y="67" type="curve" smooth="yes"/>
      <point x="148" y="178" type="line" smooth="yes"/>
      <point x="148" y="221"/>
      <point x="172" y="245"/>
      <point x="215" y="245" type="curve" smooth="yes"/>
      <point x="323" y="245" type="line" smooth="yes"/>
      <point x="366" y="245"/>
      <point x="390" y="221"/>
      <point x="390" y="178" type="curve" smooth="yes"/>
      <point x="390" y="67" type="line" smooth="yes"/>
      <point x="390" y="24"/>
      <point x="366" y="0"/>
      <point x="323" y="0" type="curve" smooth="yes"/>
    </contour>
    <contour>
      <point x="280" y="430" type="line" smooth="yes"/>
      <point x="237" y="430"/>
      <point x="236" y="453"/>
      <point x="234" y="496" type="curve"/>
      <point x="167" y="1364" type="line"/>
      <point x="167" y="1409.23"/>
      <point x="188.991" y="1436"/>
      <point x="234" y="1436" type="curve" smooth="yes"/>
      <point x="319" y="1436" type="line" smooth="yes"/>
      <point x="362" y="1436"/>
      <point x="389" y="1396"/>
      <point x="386" y="1364" type="curve" smooth="yes"/>
      <point x="327" y="496" type="line" smooth="yes"/>
      <point x="324" y="453"/>
      <point x="324" y="430"/>
      <point x="281" y="430" type="curve" smooth="yes"/>
    </contour>
  </outline>
</glyph>
<glyph name="hyphen" format="1">
  <advance width="827"/>
  <unicode hex="002D"/>
  <outline>
    <contour>
      <point x="179" y="489" type="line" smooth="yes"/>
      <point x="136" y="489"/>
      <point x="121" y="502"/>
      <point x="121" y="545" type="curve" smooth="yes"/>
      <point x="121" y="594" type="line" smooth="yes"/>
      <point x="121" y="637"/>
      <point x="136" y="650"/>
      <point x="179" y="650" type="curve" smooth="yes"/>
      <point x="650" y="650" type="line" smooth="yes"/>
      <point x="693" y="650"/>
      <point x="706" y="637"/>
      <point x="706" y="594" type="curve" smooth="yes"/>
      <point x="706" y="545" type="line" smooth="yes"/>
      <point x="706" y="502"/>
      <point x="693" y="489"/>
      <point x="650" y="489" type="curve" smooth="yes"/>
    </contour>
  </outline>
</glyph>
<glyph name="zero" format="1">
  <advance width="1925"/>
  <unicode hex="0030"/>
  <outline>
    <contour>
      <point x="962" y="129" type="curve" smooth="yes"/>
      <point x="1357" y="129"/>
      <point x="1574" y="278"/>
      <point x="1574" y="732" type="curve" smooth="yes"/>
      <point x="1574" y="1113"/>
      <point x="1370" y="1304"/>
      <point x="962" y="1304" type="curve" smooth="yes"/>
      <point x="557" y="1304"/>
      <point x="351" y="1115"/>
      <point x="351" y="732" type="curve" smooth="yes"/>
      <point x="351" y="278"/>
      <point x="570" y="129"/>
    </contour>
    <contour>
      <point x="962" y="-41" type="curve" smooth="yes"/>
      <point x="506" y="-41"/>
      <point x="136" y="155"/>
      <point x="136" y="732" type="curve" smooth="yes"/>
      <point x="136" y="1263"/>
      <point x="506" y="1475"/>
      <point x="962" y="1475" type="curve" smooth="yes"/>
      <point x="1422" y="1475"/>
      <point x="1789" y="1263"/>
      <point x="1789" y="732" type="curve" smooth="yes"/>
      <point x="1789" y="155"/>
      <point x="1422" y="-41"/>
    </contour>
  </outline>
</glyph>
<glyph name="five" format="1">
  <advance width="2091"/>
  <unicode hex="0035"/>
  <outline>
    <contour>
      <point x="940" y="-40" type="line"/>
      <point x="699" y="-39"/>
      <point x="336" y="34"/>
      <point x="224" y="67" type="curve" smooth="yes"/>
      <point x="187" y="77"/>
      <point x="171" y="94"/>
      <point x="171" y="124" type="curve" smooth="yes"/>
      <point x="171" y="128"/>
      <point x="170" y="127"/>
      <point x="179" y="190" type="curve" smooth="yes"/>
      <point x="183" y="221"/>
      <point x="197" y="234"/>
      <point x="223" y="234" type="curve" smooth="yes"/>
      <point x="230" y="234"/>
      <point x="237" y="233"/>
      <point x="246" y="231" type="curve" smooth="yes"/>
      <point x="285" y="224"/>
      <point x="617" y="133"/>
      <point x="951" y="133" type="curve" smooth="yes"/>
      <point x="1580" y="133"/>
      <point x="1741" y="225"/>
      <point x="1741" y="452" type="curve" smooth="yes"/>
      <point x="1741" y="658"/>
      <point x="1562" y="761"/>
      <point x="1008" y="761" type="curve" smooth="yes"/>
      <point x="536" y="761"/>
      <point x="466" y="598"/>
      <point x="314" y="598" type="curve" smooth="yes"/>
      <point x="271" y="598" type="line" smooth="yes"/>
      <point x="204" y="598"/>
      <point x="212" y="639"/>
      <point x="208" y="680" type="curve" smooth="yes"/>
      <point x="144" y="1318" type="line"/>
      <point x="144" y="1393"/>
      <point x="165" y="1438"/>
      <point x="234" y="1438" type="curve" smooth="yes"/>
      <point x="1765" y="1438" type="line" smooth="yes"/>
      <point x="1803" y="1438"/>
      <point x="1818" y="1410"/>
      <point x="1818" y="1380" type="curve" smooth="yes"/>
      <point x="1818" y="1358.14"/>
      <point x="1812.26" y="1337.36"/>
      <point x="1809" y="1317" type="curve" smooth="yes"/>
      <point x="1805" y="1286"/>
      <point x="1791" y="1273"/>
      <point x="1765" y="1273" type="curve" smooth="yes"/>
      <point x="427" y="1295" type="line" smooth="yes"/>
      <point x="387" y="1295"/>
      <point x="360" y="1269"/>
      <point x="360" y="1229" type="curve" smooth="yes"/>
      <point x="360" y="1223" type="line" smooth="yes"/>
      <point x="378" y="767" type="line"/>
      <point x="512" y="854"/>
      <point x="681" y="934"/>
      <point x="1131" y="934" type="curve" smooth="yes"/>
      <point x="1786" y="934"/>
      <point x="1958" y="728"/>
      <point x="1958" y="447" type="curve" smooth="yes"/>
      <point x="1958" y="56"/>
      <point x="1548" y="-40"/>
      <point x="943" y="-40" type="curve" smooth="yes"/>
    </contour>
  </outline>
</glyph>
<glyph name="at" format="1">
  <advance width="2242"/>
  <unicode hex="0040"/>
  <outline>
    <contour>
      <point x="1472" y="-148" type="line" smooth="yes"/>
      <point x="1476" y="-154"/>
      <point x="1477" y="-160"/>
      <point x="1477" y="-166" type="curve" smooth="yes"/>
      <point x="1477" y="-182"/>
      <point x="1465" y="-198"/>
      <point x="1448" y="-203" type="curve" smooth="yes"/>
      <point x="1338" y="-243"/>
      <point x="1211" y="-265"/>
      <point x="1067" y="-265" type="curve" smooth="yes"/>
      <point x="467" y="-265"/>
      <point x="166" y="142"/>
      <point x="166" y="595" type="curve" smooth="yes"/>
      <point x="166" y="1078"/>
      <point x="541" y="1455"/>
      <point x="1143" y="1455" type="curve" smooth="yes"/>
      <point x="1762" y="1455"/>
      <point x="2106" y="1050"/>
      <point x="2108" y="601" type="curve"/>
      <point x="2108" y="247"/>
      <point x="1943" y="127"/>
      <point x="1793" y="127" type="curve" smooth="yes"/>
      <point x="1683" y="127"/>
      <point x="1604" y="186"/>
      <point x="1577" y="301" type="curve" smooth="yes"/>
      <point x="1572" y="322"/>
      <point x="1567" y="339"/>
      <point x="1560" y="339" type="curve" smooth="yes"/>
      <point x="1552" y="339"/>
      <point x="1545" y="324"/>
      <point x="1539" y="315" type="curve" smooth="yes"/>
      <point x="1466" y="203"/>
      <point x="1342" y="92"/>
      <point x="1116" y="92" type="curve" smooth="yes"/>
      <point x="840" y="92"/>
      <point x="595" y="258"/>
      <point x="595" y="573" type="curve" smooth="yes"/>
      <point x="595" y="869"/>
      <point x="820" y="1037"/>
      <point x="1105" y="1037" type="curve" smooth="yes"/>
      <point x="1313" y="1037"/>
      <point x="1468" y="933"/>
      <point x="1527" y="816" type="curve" smooth="yes"/>
      <point x="1531" y="808"/>
      <point x="1534" y="804"/>
      <point x="1537" y="804" type="curve" smooth="yes"/>
      <point x="1540" y="804"/>
      <point x="1541" y="809"/>
      <point x="1543" y="817" type="curve" smooth="yes"/>
      <point x="1562" y="942" type="line" smooth="yes"/>
      <point x="1567" y="980"/>
      <point x="1589" y="992"/>
      <point x="1619" y="992" type="curve" smooth="yes"/>
      <point x="1635" y="992" type="line" smooth="yes"/>
      <point x="1660" y="992"/>
      <point x="1680" y="965"/>
      <point x="1680" y="931" type="curve" smooth="yes"/>
      <point x="1680" y="366" type="line" smooth="yes"/>
      <point x="1680" y="273"/>
      <point x="1736" y="240"/>
      <point x="1796" y="240" type="curve" smooth="yes"/>
      <point x="1875" y="240"/>
      <point x="1960" y="272"/>
      <point x="1960" y="601" type="curve" smooth="yes"/>
      <point x="1960" y="990"/>
      <point x="1684" y="1312"/>
      <point x="1147" y="1312" type="curve" smooth="yes"/>
      <point x="612" y="1312"/>
      <point x="333" y="984"/>
      <point x="333" y="585" type="curve" smooth="yes"/>
      <point x="333" y="228"/>
      <point x="558" y="-127"/>
      <point x="1095" y="-127" type="curve" smooth="yes"/>
      <point x="1212" y="-127"/>
      <point x="1312" y="-108"/>
      <point x="1397" y="-74" type="curve" smooth="yes"/>
      <point x="1404" y="-70"/>
      <point x="1410" y="-69"/>
      <point x="1415" y="-69" type="curve" smooth="yes"/>
      <point x="1428" y="-69"/>
      <point x="1434" y="-81"/>
      <point x="1443" y="-101" type="curve"/>
    </contour>
    <contour>
      <point x="1115" y="229" type="curve" smooth="yes"/>
      <point x="1295" y="229"/>
      <point x="1482" y="306"/>
      <point x="1482" y="564" type="curve" smooth="yes"/>
      <point x="1482" y="810"/>
      <point x="1293" y="902"/>
      <point x="1117" y="902" type="curve" smooth="yes"/>
      <point x="846" y="902"/>
      <point x="753" y="737"/>
      <point x="753" y="569" type="curve" smooth="yes"/>
      <point x="753" y="388"/>
      <point x="878" y="229"/>
    </contour>
  </outline>
</glyph>
<glyph name="D" format="1">
  <advance width="2208"/>
  <unicode hex="0044"/>
  <outline>
    <contour>
      <point x="402" y="155" type="curve"/>
      <point x="1141" y="155" type="line" smooth="yes"/>
      <point x="1534" y="155"/>
      <point x="1858" y="227"/>
      <point x="1858" y="721" type="curve" smooth="yes"/>
      <point x="1858" y="1142"/>
      <point x="1548" y="1283"/>
      <point x="1140" y="1283" type="curve" smooth="yes"/>
      <point x="396" y="1283" type="line"/>
      <point x="384.408" y="1283"/>
      <point x="375" y="1275.38"/>
      <point x="375" y="1266" type="curve" smooth="yes"/>
      <point x="375" y="176" type="line" smooth="yes"/>
      <point x="375" y="164.408"/>
      <point x="387.096" y="155"/>
    </contour>
    <contour>
      <point x="227" y="0" type="line" smooth="yes"/>
      <point x="184" y="0"/>
      <point x="160" y="24"/>
      <point x="160" y="67" type="curve" smooth="yes"/>
      <point x="160" y="1371" type="line" smooth="yes"/>
      <point x="160" y="1414"/>
      <point x="184" y="1438"/>
      <point x="227" y="1438" type="curve" smooth="yes"/>
      <point x="1134" y="1438" type="line" smooth="yes"/>
      <point x="1593" y="1438"/>
      <point x="2074" y="1294"/>
      <point x="2074" y="721" type="curve" smooth="yes"/>
      <point x="2074" y="104"/>
      <point x="1594" y="0"/>
      <point x="1137" y="0" type="curve" smooth="yes"/>
    </contour>
  </outline>
</glyph>
<glyph name="L" format="1">
  <advance width="1339"/>
  <unicode hex="004C"/>
  <outline>
    <contour>
      <point x="227" y="0" type="line" smooth="yes"/>
      <point x="184" y="0"/>
      <point x="160" y="24"/>
      <point x="160" y="67" type="curve" smooth="yes"/>
      <point x="160" y="1371" type="line" smooth="yes"/>
      <point x="160" y="1414"/>
      <point x="184" y="1438"/>
      <point x="227" y="1438" type="curve" smooth="yes"/>
      <point x="307" y="1438" type="line" smooth="yes"/>
      <point x="350" y="1438"/>
      <point x="374" y="1414"/>
      <point x="374" y="1371" type="curve" smooth="yes"/>
      <point x="374" y="191" type="line" smooth="yes"/>
      <point x="374" y="171"/>
      <point x="391" y="154"/>
      <point x="411" y="154" type="curve" smooth="yes"/>
      <point x="1163" y="154" type="line" smooth="yes"/>
      <point x="1206" y="154"/>
      <point x="1230" y="132"/>
      <point x="1230" y="89" type="curve" smooth="yes"/>
      <point x="1230" y="67" type="line" smooth="yes"/>
      <point x="1230" y="24"/>
      <point x="1206" y="0"/>
      <point x="1163" y="0" type="curve" smooth="yes"/>
    </contour>
  </outline>
</glyph>
<glyph name="P" format="1">
  <advance width="2011"/>
  <unicode hex="0050"/>
  <outline>
    <contour>
      <point x="227" y="0" type="line" smooth="yes"/>
      <point x="184" y="0"/>
      <point x="160" y="24"/>
      <point x="160" y="67" type="curve" smooth="yes"/>
      <point x="160" y="1371" type="line" smooth="yes"/>
      <point x="160" y="1414"/>
      <point x="184" y="1438"/>
      <point x="227" y="1438" type="curve" smooth="yes"/>
      <point x="905" y="1438" type="line"/>
      <point x="916" y="1438" type="line" smooth="yes"/>
      <point x="1371" y="1438"/>
      <point x="1878" y="1436"/>
      <point x="1878" y="965" type="curve" smooth="yes"/>
      <point x="1878" y="442"/>
      <point x="1497" y="442"/>
      <point x="965" y="442" type="curve" smooth="yes"/>
      <point x="394" y="442" type="line"/>
      <point x="383.512" y="442"/>
      <point x="375" y="433.04"/>
      <point x="375" y="422" type="curve"/>
      <point x="375" y="67" type="line" smooth="yes"/>
      <point x="375" y="24"/>
      <point x="351" y="0"/>
      <point x="308" y="0" type="curve" smooth="yes"/>
    </contour>
    <contour>
      <point x="391" y="614" type="curve"/>
      <point x="957" y="614" type="line" smooth="yes"/>
      <point x="1465" y="614"/>
      <point x="1662" y="614"/>
      <point x="1662" y="965" type="curve" smooth="yes"/>
      <point x="1662" y="1265"/>
      <point x="1366" y="1284"/>
      <point x="909" y="1284" type="curve" smooth="yes"/>
      <point x="392" y="1284" type="line"/>
      <point x="382.616" y="1284"/>
      <point x="375" y="1276.83"/>
      <point x="375" y="1268" type="curve"/>
      <point x="375" y="635" type="line"/>
      <point x="375" y="623.408"/>
      <point x="382.168" y="614"/>
    </contour>
  </outline>
</glyph>
<glyph name="Z" format="1">
  <advance width="1609"/>
  <unicode hex="005A"/>
  <outline>
    <contour>
      <point x="195" y="0" type="line" smooth="yes"/>
      <point x="152" y="0"/>
      <point x="129" y="34"/>
      <point x="129" y="77" type="curve" smooth="yes"/>
      <point x="129" y="106" type="line" smooth="yes"/>
      <point x="129" y="130"/>
      <point x="135" y="150"/>
      <point x="149" y="163" type="curve"/>
      <point x="1172" y="1234" type="line" smooth="yes"/>
      <point x="1182" y="1245"/>
      <point x="1187" y="1253"/>
      <point x="1187" y="1263" type="curve" smooth="yes"/>
      <point x="1187" y="1274"/>
      <point x="1184" y="1284"/>
      <point x="1156" y="1284" type="curve" smooth="yes"/>
      <point x="205" y="1284" type="line" smooth="yes"/>
      <point x="162" y="1284"/>
      <point x="138" y="1318"/>
      <point x="138" y="1361" type="curve" smooth="yes"/>
      <point x="138" y="1404"/>
      <point x="162" y="1438"/>
      <point x="205" y="1438" type="curve" smooth="yes"/>
      <point x="1395" y="1438" type="line" smooth="yes"/>
      <point x="1438" y="1438"/>
      <point x="1462" y="1404"/>
      <point x="1462" y="1361" type="curve" smooth="yes"/>
      <point x="1462" y="1332" type="line" smooth="yes"/>
      <point x="1462" y="1289"/>
      <point x="1443" y="1245"/>
      <point x="1430" y="1230" type="curve" smooth="yes"/>
      <point x="443" y="189" type="line" smooth="yes"/>
      <point x="434" y="179"/>
      <point x="431" y="177"/>
      <point x="431" y="168" type="curve" smooth="yes"/>
      <point x="431" y="160"/>
      <point x="436" y="154"/>
      <point x="451" y="154" type="curve" smooth="yes"/>
      <point x="1415" y="154" type="line" smooth="yes"/>
      <point x="1458" y="154"/>
      <point x="1481" y="120"/>
      <point x="1481" y="77" type="curve" smooth="yes"/>
      <point x="1481" y="34"/>
      <point x="1458" y="0"/>
      <point x="1415" y="0" type="curve" smooth="yes"/>
    </contour>
  </outline>
</glyph>
<glyph name="j" format="1">
  <advance width="774"/>
  <unicode hex="006A"/>
  <outline>
    <contour>
      <point x="108" y="-379" type="line" smooth="yes"/>
      <point x="65" y="-379"/>
      <point x="50" y="-355.358"/>
      <point x="50" y="-313" type="curve" smooth="yes"/>
      <point x="50" y="-268" type="line" smooth="yes"/>
      <point x="50" y="-225"/>
      <point x="65" y="-207"/>
      <point x="108" y="-207" type="curve" smooth="yes"/>
      <point x="233" y="-207" type="line" smooth="yes"/>
      <point x="390" y="-207"/>
      <point x="396" y="-112"/>
      <point x="396" y="51" type="curve" smooth="yes"/>
      <point x="396" y="939" type="line" smooth="yes"/>
      <point x="396" y="982"/>
      <point x="420" y="1006"/>
      <point x="463" y="1006" type="curve" smooth="yes"/>
      <point x="548" y="1006" type="line" smooth="yes"/>
      <point x="591" y="1006"/>
      <point x="614" y="982"/>
      <point x="614" y="939" type="curve" smooth="yes"/>
      <point x="614" y="6" type="line"/>
      <point x="612" y="-257"/>
      <point x="500" y="-379"/>
      <point x="196" y="-379" type="curve" smooth="yes"/>
    </contour>
    <contour>
      <point x="456" y="1180" type="line" smooth="yes"/>
      <point x="413" y="1180"/>
      <point x="389" y="1203"/>
      <point x="389" y="1246" type="curve" smooth="yes"/>
      <point x="389" y="1341" type="line" smooth="yes"/>
      <point x="389" y="1384"/>
      <point x="413" y="1408"/>
      <point x="456" y="1408" type="curve" smooth="yes"/>
      <point x="541" y="1408" type="line" smooth="yes"/>
      <point x="584" y="1408"/>
      <point x="607" y="1384"/>
      <point x="607" y="1341" type="curve" smooth="yes"/>
      <point x="607" y="1246" type="line" smooth="yes"/>
      <point x="607" y="1203"/>
      <point x="584" y="1180"/>
      <point x="541" y="1180" type="curve" smooth="yes"/>
    </contour>
  </outline>
</glyph>
<glyph name="n" format="1">
  <advance width="1529"/>
  <unicode hex="006E"/>
  <outline>
    <contour>
      <point x="219" y="0" type="line" smooth="yes"/>
      <point x="176" y="0"/>
      <point x="152" y="24"/>
      <point x="152" y="67" type="curve" smooth="yes"/>
      <point x="152" y="929" type="line" smooth="yes"/>
      <point x="152" y="972"/>
      <point x="165" y="1006"/>
      <point x="208" y="1006" type="curve" smooth="yes"/>
      <point x="226" y="1006" type="line" smooth="yes"/>
      <point x="273" y="1006"/>
      <point x="295" y="992"/>
      <point x="305" y="942" type="curve" smooth="yes"/>
      <point x="331" y="824" type="line"/>
      <point x="336" y="816"/>
      <point x="338" y="811"/>
      <point x="346" y="811" type="curve" smooth="yes"/>
      <point x="354" y="811"/>
      <point x="360" y="819"/>
      <point x="366" y="826" type="curve" smooth="yes"/>
      <point x="496" y="987"/>
      <point x="680" y="1052"/>
      <point x="869" y="1052" type="curve" smooth="yes"/>
      <point x="1177" y="1052"/>
      <point x="1386" y="888"/>
      <point x="1386" y="553" type="curve" smooth="yes"/>
      <point x="1386" y="67" type="line" smooth="yes"/>
      <point x="1386" y="24"/>
      <point x="1362" y="0"/>
      <point x="1319" y="0" type="curve" smooth="yes"/>
      <point x="1234" y="0" type="line" smooth="yes"/>
      <point x="1191" y="0"/>
      <point x="1168" y="24"/>
      <point x="1168" y="67" type="curve" smooth="yes"/>
      <point x="1168" y="609" type="line" smooth="yes"/>
      <point x="1168" y="836"/>
      <point x="1015" y="905"/>
      <point x="829" y="905" type="curve" smooth="yes"/>
      <point x="632" y="905"/>
      <point x="371" y="742"/>
      <point x="371" y="609" type="curve" smooth="yes"/>
      <point x="371" y="67" type="line" smooth="yes"/>
      <point x="371" y="24"/>
      <point x="348" y="0"/>
      <point x="305" y="0" type="curve" smooth="yes"/>
    </contour>
  </outline>
</glyph>
<glyph name="braceleft" format="1">
  <advance width="928"/>
  <unicode hex="007B"/>
  <outline>
    <contour>
      <point x="412" y="1192" type="curve" smooth="yes"/>
      <point x="412" y="1212" type="line" smooth="yes"/>
      <point x="412" y="1433"/>
      <point x="459" y="1543"/>
      <point x="685" y="1543" type="curve" smooth="yes"/>
      <point x="729" y="1543" type="line" smooth="yes"/>
      <point x="771" y="1543"/>
      <point x="806" y="1529"/>
      <point x="806" y="1487" type="curve" smooth="yes"/>
      <point x="806" y="1438" type="line" smooth="yes"/>
      <point x="806" y="1388"/>
      <point x="784" y="1375"/>
      <point x="736" y="1375" type="curve" smooth="yes"/>
      <point x="730" y="1375" type="line" smooth="yes"/>
      <point x="618" y="1375"/>
      <point x="580" y="1354"/>
      <point x="580" y="1177" type="curve" smooth="yes"/>
      <point x="580" y="1172" type="line" smooth="yes"/>
      <point x="580" y="1008"/>
      <point x="580" y="753"/>
      <point x="455" y="725" type="curve" smooth="yes"/>
      <point x="448" y="723"/>
      <point x="445" y="718"/>
      <point x="445" y="712" type="curve" smooth="yes"/>
      <point x="445" y="706"/>
      <point x="448" y="701"/>
      <point x="455" y="699" type="curve" smooth="yes"/>
      <point x="579" y="672"/>
      <point x="580" y="424"/>
      <point x="580" y="260" type="curve" smooth="yes"/>
      <point x="580" y="247" type="line" smooth="yes"/>
      <point x="580" y="70"/>
      <point x="618" y="49"/>
      <point x="730" y="49" type="curve" smooth="yes"/>
      <point x="736" y="49" type="line" smooth="yes"/>
      <point x="784" y="49"/>
      <point x="806" y="36"/>
      <point x="806" y="-14" type="curve" smooth="yes"/>
      <point x="806" y="-62" type="line" smooth="yes"/>
      <point x="806" y="-104"/>
      <point x="771" y="-119"/>
      <point x="729" y="-119" type="curve" smooth="yes"/>
      <point x="685" y="-119" type="line" smooth="yes"/>
      <point x="459" y="-119"/>
      <point x="412" y="-9"/>
      <point x="412" y="212" type="curve" smooth="yes"/>
      <point x="412" y="232" type="line" smooth="yes"/>
      <point x="412" y="548"/>
      <point x="374" y="609"/>
      <point x="282" y="609" type="curve" smooth="yes"/>
      <point x="280" y="609" type="line"/>
      <point x="280" y="608"/>
      <point x="217" y="608"/>
      <point x="217" y="608" type="curve"/>
      <point x="148" y="608"/>
      <point x="125" y="622"/>
      <point x="125" y="712" type="curve" smooth="yes"/>
      <point x="125" y="802"/>
      <point x="148" y="816"/>
      <point x="217" y="816" type="curve" smooth="yes"/>
      <point x="280" y="816" type="line" smooth="yes"/>
      <point x="284" y="816" type="line" smooth="yes"/>
      <point x="375" y="816"/>
      <point x="412" y="878"/>
    </contour>
  </outline>
</glyph>
<glyph name="cent" format="1">
  <advance width="1540"/>
  <unicode hex="00A2"/>
  <outline>
    <contour>
      <point x="766" y="114" type="curve"/>
      <point x="766" y="897" type="line"/>
      <point x="553" y="868"/>
      <point x="346" y="749"/>
      <point x="347" y="504" type="curve"/>
      <point x="346" y="281"/>
      <point x="535" y="148"/>
    </contour>
    <contour>
      <point x="833" y="-204" type="line" smooth="yes"/>
      <point x="790" y="-204"/>
      <point x="766" y="-188"/>
      <point x="766" y="-145" type="curve" smooth="yes"/>
      <point x="766" y="-37" type="line"/>
      <point x="464" y="-7"/>
      <point x="128" y="148"/>
      <point x="128" y="504" type="curve" smooth="yes"/>
      <point x="128" y="869"/>
      <point x="462" y="1021"/>
      <point x="766" y="1049" type="curve"/>
      <point x="766" y="1216" type="line" smooth="yes"/>
      <point x="766" y="1259"/>
      <point x="790" y="1271"/>
      <point x="833" y="1271" type="curve" smooth="yes"/>
      <point x="858" y="1271" type="line" smooth="yes"/>
      <point x="901" y="1271"/>
      <point x="925" y="1257"/>
      <point x="925" y="1214" type="curve" smooth="yes"/>
      <point x="925" y="1053" type="line"/>
      <point x="1075" y="1045"/>
      <point x="1246" y="1007"/>
      <point x="1368" y="932" type="curve" smooth="yes"/>
      <point x="1390" y="919"/>
      <point x="1398" y="905"/>
      <point x="1398" y="891" type="curve" smooth="yes"/>
      <point x="1398" y="885"/>
      <point x="1397" y="879"/>
      <point x="1394" y="872" type="curve" smooth="yes"/>
      <point x="1368" y="813" type="line" smooth="yes"/>
      <point x="1360" y="794"/>
      <point x="1350" y="787"/>
      <point x="1339" y="787" type="curve" smooth="yes"/>
      <point x="1324" y="787"/>
      <point x="1308" y="798"/>
      <point x="1294" y="806" type="curve" smooth="yes"/>
      <point x="1221" y="846"/>
      <point x="1099" y="894"/>
      <point x="925" y="903" type="curve"/>
      <point x="925" y="107" type="line"/>
      <point x="1079" y="116"/>
      <point x="1211" y="173"/>
      <point x="1271" y="201" type="curve" smooth="yes"/>
      <point x="1287" y="208"/>
      <point x="1300" y="212"/>
      <point x="1312" y="212" type="curve" smooth="yes"/>
      <point x="1330" y="212"/>
      <point x="1343" y="204"/>
      <point x="1347" y="192" type="curve" smooth="yes"/>
      <point x="1348" y="188"/>
      <point x="1367" y="139"/>
      <point x="1367" y="115" type="curve" smooth="yes"/>
      <point x="1367" y="96"/>
      <point x="1356" y="78"/>
      <point x="1323" y="62" type="curve" smooth="yes"/>
      <point x="1214" y="8"/>
      <point x="1057" y="-31"/>
      <point x="925" y="-40" type="curve"/>
      <point x="925" y="-147" type="line" smooth="yes"/>
      <point x="925" y="-190"/>
      <point x="901" y="-204"/>
      <point x="858" y="-204" type="curve" smooth="yes"/>
    </contour>
  </outline>
</glyph>
<glyph name="guillemotleft" format="1">
  <advance width="1344"/>
  <unicode hex="00AB"/>
  <outline>
    <contour>
      <point x="651" y="251" type="curve" smooth="yes"/>
      <point x="646" y="251"/>
      <point x="639" y="254"/>
      <point x="633" y="256" type="curve"/>
      <point x="182" y="597" type="line" smooth="yes"/>
      <point x="150" y="622"/>
      <point x="123" y="638"/>
      <point x="123" y="679" type="curve" smooth="yes"/>
      <point x="123" y="736" type="line" smooth="yes"/>
      <point x="123" y="777"/>
      <point x="150" y="793"/>
      <point x="183" y="817" type="curve" smooth="yes"/>
      <point x="633" y="1145" type="line"/>
      <point x="638" y="1146"/>
      <point x="644" y="1148"/>
      <point x="650" y="1148" type="curve" smooth="yes"/>
      <point x="672" y="1148"/>
      <point x="692" y="1132"/>
      <point x="692" y="1107" type="curve" smooth="yes"/>
      <point x="692" y="1033" type="line" smooth="yes"/>
      <point x="692" y="993"/>
      <point x="663" y="976"/>
      <point x="630" y="955" type="curve"/>
      <point x="309" y="722" type="line"/>
      <point x="303" y="719"/>
      <point x="300" y="714"/>
      <point x="300" y="709" type="curve" smooth="yes"/>
      <point x="300" y="704"/>
      <point x="303" y="699"/>
      <point x="309" y="696" type="curve"/>
      <point x="630" y="461" type="line"/>
      <point x="664" y="441"/>
      <point x="692" y="423"/>
      <point x="692" y="382" type="curve" smooth="yes"/>
      <point x="692" y="292" type="line" smooth="yes"/>
      <point x="692" y="268"/>
      <point x="672" y="251"/>
    </contour>
    <contour>
      <point x="1160" y="251" type="curve" smooth="yes"/>
      <point x="1154" y="251"/>
      <point x="1148" y="254"/>
      <point x="1141" y="256" type="curve"/>
      <point x="690" y="597" type="line"/>
      <point x="659" y="622"/>
      <point x="632" y="638"/>
      <point x="632" y="679" type="curve" smooth="yes"/>
      <point x="632" y="736" type="line" smooth="yes"/>
      <point x="632" y="777"/>
      <point x="659" y="793"/>
      <point x="692" y="817" type="curve" smooth="yes"/>
      <point x="1140" y="1145" type="line"/>
      <point x="1147" y="1146"/>
      <point x="1153" y="1148"/>
      <point x="1159" y="1148" type="curve" smooth="yes"/>
      <point x="1180" y="1148"/>
      <point x="1200" y="1132"/>
      <point x="1200" y="1107" type="curve" smooth="yes"/>
      <point x="1200" y="1033" type="line" smooth="yes"/>
      <point x="1200" y="993"/>
      <point x="1171" y="976"/>
      <point x="1138" y="955" type="curve"/>
      <point x="818" y="722" type="line"/>
      <point x="812" y="719"/>
      <point x="809" y="714"/>
      <point x="809" y="709" type="curve" smooth="yes"/>
      <point x="809" y="704"/>
      <point x="812" y="699"/>
      <point x="818" y="696" type="curve"/>
      <point x="1138" y="461" type="line"/>
      <point x="1172" y="441"/>
      <point x="1200" y="423"/>
      <point x="1200" y="382" type="curve" smooth="yes"/>
      <point x="1200" y="292" type="line" smooth="yes"/>
      <point x="1200" y="268"/>
      <point x="1180" y="251"/>
    </contour>
  </outline>
</glyph>
<glyph name="logicalnot" format="1">
  <advance width="1254"/>
  <unicode hex="00AC"/>
  <outline>
    <contour>
      <point x="951" y="241" type="line" smooth="yes"/>
      <point x="908" y="241"/>
      <point x="894" y="275"/>
      <point x="894" y="318" type="curve" smooth="yes"/>
      <point x="894" y="581" type="line" smooth="yes"/>
      <point x="894" y="601"/>
      <point x="877" y="618"/>
      <point x="857" y="618" type="curve" smooth="yes"/>
      <point x="181" y="618" type="line" smooth="yes"/>
      <point x="138" y="618"/>
      <point x="125" y="632"/>
      <point x="125" y="675" type="curve" smooth="yes"/>
      <point x="125" y="736" type="line" smooth="yes"/>
      <point x="125" y="779"/>
      <point x="138" y="792"/>
      <point x="181" y="792" type="curve" smooth="yes"/>
      <point x="1039" y="792" type="line" smooth="yes"/>
      <point x="1082" y="792"/>
      <point x="1116" y="768"/>
      <point x="1116" y="725" type="curve" smooth="yes"/>
      <point x="1116" y="318" type="line" smooth="yes"/>
      <point x="1116" y="275"/>
      <point x="1102" y="241"/>
      <point x="1059" y="241" type="curve" smooth="yes"/>
    </contour>
  </outline>
</glyph>
<glyph name="uni00B3" format="1">
  <advance width="1472"/>
  <unicode hex="00B3"/>
  <outline>
    <contour>
      <point x="783" y="1355" type="curve" smooth="yes"/>
      <point x="1041" y="1355"/>
      <point x="1160" y="1312"/>
      <point x="1160" y="1181" type="curve" smooth="yes"/>
      <point x="1160" y="1093"/>
      <point x="1102" y="1006"/>
      <point x="835" y="1006" type="curve" smooth="yes"/>
      <point x="667" y="1006" type="line" smooth="yes"/>
      <point x="644" y="1006"/>
      <point x="644" y="985"/>
      <point x="644" y="975" type="curve" smooth="yes"/>
      <point x="644" y="917" type="line" smooth="yes"/>
      <point x="644" y="907"/>
      <point x="644" y="887"/>
      <point x="667" y="887" type="curve" smooth="yes"/>
      <point x="835" y="887" type="line" smooth="yes"/>
      <point x="1100" y="887"/>
      <point x="1175" y="801"/>
      <point x="1175" y="711" type="curve" smooth="yes"/>
      <point x="1175" y="704"/>
      <point x="1175" y="697"/>
      <point x="1174" y="690" type="curve" smooth="yes"/>
      <point x="1165" y="624"/>
      <point x="1109" y="523"/>
      <point x="762" y="523" type="curve" smooth="yes"/>
      <point x="525" y="523"/>
      <point x="220" y="587"/>
      <point x="192" y="592" type="curve" smooth="yes"/>
      <point x="186" y="593"/>
      <point x="181" y="594"/>
      <point x="176" y="594" type="curve" smooth="yes"/>
      <point x="157" y="594"/>
      <point x="147" y="585"/>
      <point x="145" y="563" type="curve" smooth="yes"/>
      <point x="142" y="524" type="line" smooth="yes"/>
      <point x="141" y="520"/>
      <point x="141" y="517"/>
      <point x="141" y="514" type="curve" smooth="yes"/>
      <point x="141" y="493"/>
      <point x="152" y="481"/>
      <point x="179" y="474" type="curve" smooth="yes"/>
      <point x="258" y="451"/>
      <point x="616" y="402"/>
      <point x="755" y="402" type="curve" smooth="yes"/>
      <point x="1185" y="402"/>
      <point x="1327" y="527"/>
      <point x="1327" y="704" type="curve" smooth="yes"/>
      <point x="1327" y="830"/>
      <point x="1238" y="925"/>
      <point x="1090" y="943" type="curve"/>
      <point x="1232" y="958"/>
      <point x="1310" y="1048"/>
      <point x="1310" y="1174" type="curve" smooth="yes"/>
      <point x="1310" y="1344"/>
      <point x="1208" y="1477"/>
      <point x="779" y="1477" type="curve" smooth="yes"/>
      <point x="607" y="1477"/>
      <point x="258" y="1425"/>
      <point x="179" y="1401" type="curve"/>
      <point x="152" y="1394"/>
      <point x="141" y="1382"/>
      <point x="141" y="1361" type="curve" smooth="yes"/>
      <point x="141" y="1358"/>
      <point x="141" y="1355"/>
      <point x="142" y="1352" type="curve" smooth="yes"/>
      <point x="149" y="1314" type="line"/>
      <point x="152" y="1292"/>
      <point x="167" y="1283"/>
      <point x="185" y="1283" type="curve" smooth="yes"/>
      <point x="190" y="1283"/>
      <point x="196" y="1283"/>
      <point x="202" y="1285" type="curve" smooth="yes"/>
      <point x="230" y="1290"/>
      <point x="519" y="1355"/>
    </contour>
  </outline>
</glyph>
<glyph name="guillemotright" format="1">
  <advance width="1352"/>
  <unicode hex="00BB"/>
  <outline>
    <contour>
      <point x="184" y="251" type="curve" smooth="yes"/>
      <point x="164" y="251"/>
      <point x="144" y="268"/>
      <point x="144" y="292" type="curve" smooth="yes"/>
      <point x="144" y="366" type="line" smooth="yes"/>
      <point x="144" y="407"/>
      <point x="172" y="423"/>
      <point x="206" y="445" type="curve"/>
      <point x="527" y="677" type="line" smooth="yes"/>
      <point x="533" y="681"/>
      <point x="536" y="686"/>
      <point x="536" y="691" type="curve" smooth="yes"/>
      <point x="536" y="695"/>
      <point x="532" y="700"/>
      <point x="527" y="704" type="curve" smooth="yes"/>
      <point x="206" y="939" type="line"/>
      <point x="171" y="959"/>
      <point x="144" y="976"/>
      <point x="144" y="1018" type="curve" smooth="yes"/>
      <point x="144" y="1107" type="line" smooth="yes"/>
      <point x="144" y="1132"/>
      <point x="164" y="1148"/>
      <point x="184" y="1148" type="curve" smooth="yes"/>
      <point x="190" y="1148"/>
      <point x="197" y="1145"/>
      <point x="202" y="1144" type="curve"/>
      <point x="653" y="802" type="line" smooth="yes"/>
      <point x="685" y="778"/>
      <point x="713" y="761"/>
      <point x="713" y="720" type="curve" smooth="yes"/>
      <point x="713" y="664" type="line" smooth="yes"/>
      <point x="713" y="623"/>
      <point x="685" y="607"/>
      <point x="653" y="582" type="curve"/>
      <point x="203" y="255" type="line"/>
      <point x="198" y="253"/>
      <point x="192" y="251"/>
    </contour>
    <contour>
      <point x="701" y="251" type="curve" smooth="yes"/>
      <point x="680" y="251"/>
      <point x="661" y="268"/>
      <point x="661" y="292" type="curve" smooth="yes"/>
      <point x="661" y="366" type="line" smooth="yes"/>
      <point x="661" y="407"/>
      <point x="690" y="423"/>
      <point x="723" y="445" type="curve"/>
      <point x="1043" y="677" type="line" smooth="yes"/>
      <point x="1049" y="681"/>
      <point x="1052" y="686"/>
      <point x="1052" y="691" type="curve" smooth="yes"/>
      <point x="1052" y="695"/>
      <point x="1049" y="700"/>
      <point x="1043" y="704" type="curve" smooth="yes"/>
      <point x="723" y="939" type="line"/>
      <point x="688" y="959"/>
      <point x="661" y="976"/>
      <point x="661" y="1018" type="curve" smooth="yes"/>
      <point x="661" y="1107" type="line" smooth="yes"/>
      <point x="661" y="1132"/>
      <point x="680" y="1148"/>
      <point x="700" y="1148" type="curve" smooth="yes"/>
      <point x="706" y="1148"/>
      <point x="713" y="1145"/>
      <point x="719" y="1144" type="curve"/>
      <point x="1170" y="802" type="line" smooth="yes"/>
      <point x="1202" y="778"/>
      <point x="1229" y="761"/>
      <point x="1229" y="720" type="curve" smooth="yes"/>
      <point x="1229" y="664" type="line" smooth="yes"/>
      <point x="1229" y="623"/>
      <point x="1202" y="607"/>
      <point x="1169" y="582" type="curve" smooth="yes"/>
      <point x="720" y="255" type="line"/>
      <point x="714" y="253"/>
      <point x="708" y="251"/>
    </contour>
  </outline>
</glyph>
<glyph name="onequarter" format="1">
  <advance width="3032"/>
  <unicode hex="00BC"/>
  <outline>
    <contour>
      <point x="399" y="434" type="line" smooth="yes"/>
      <point x="368" y="434"/>
      <point x="364" y="451"/>
      <point x="364" y="483" type="curve"/>
      <point x="364" y="690" type="line" smooth="yes"/>
      <point x="364" y="1281" type="line"/>
      <point x="364" y="1281"/>
      <point x="369" y="1313"/>
      <point x="338" y="1313" type="curve"/>
      <point x="139" y="1290" type="line"/>
      <point x="107" y="1290"/>
      <point x="98" y="1309"/>
      <point x="98" y="1340" type="curve"/>
      <point x="99" y="1340"/>
      <point x="100" y="1363"/>
      <point x="100" y="1363" type="curve"/>
      <point x="100" y="1395"/>
      <point x="118" y="1408"/>
      <point x="149" y="1408" type="curve"/>
      <point x="150" y="1408" type="line" smooth="yes"/>
      <point x="168" y="1408"/>
      <point x="516" y="1443"/>
      <point x="516" y="1443" type="curve"/>
      <point x="537" y="1443"/>
      <point x="541" y="1433"/>
      <point x="541" y="1417" type="curve" smooth="yes"/>
      <point x="541" y="1410"/>
      <point x="540" y="1401"/>
      <point x="540" y="1391" type="curve"/>
      <point x="539" y="1391"/>
      <point x="538" y="480"/>
      <point x="538" y="480" type="curve" smooth="yes"/>
      <point x="538" y="456"/>
      <point x="524" y="434"/>
      <point x="498" y="434" type="curve" smooth="yes"/>
    </contour>
    <contour>
      <point x="2566" y="3" type="line" smooth="yes"/>
      <point x="2536" y="3"/>
      <point x="2520" y="20"/>
      <point x="2520" y="50" type="curve" smooth="yes"/>
      <point x="2520" y="201" type="line"/>
      <point x="1937" y="199" type="line" smooth="yes"/>
      <point x="1911" y="199"/>
      <point x="1888" y="212"/>
      <point x="1888" y="234" type="curve" smooth="yes"/>
      <point x="1888" y="238"/>
      <point x="1888" y="241"/>
      <point x="1890" y="246" type="curve" smooth="yes"/>
      <point x="2115" y="958" type="line" smooth="yes"/>
      <point x="2124" y="986"/>
      <point x="2131" y="1006"/>
      <point x="2161" y="1006" type="curve" smooth="yes"/>
      <point x="2237" y="1006" type="line" smooth="yes"/>
      <point x="2263" y="1006"/>
      <point x="2286" y="992"/>
      <point x="2286" y="970" type="curve" smooth="yes"/>
      <point x="2286" y="966"/>
      <point x="2285" y="963"/>
      <point x="2284" y="959" type="curve" smooth="yes"/>
      <point x="2093" y="339" type="line"/>
      <point x="2093" y="332" type="line" smooth="yes"/>
      <point x="2093" y="322"/>
      <point x="2101" y="315"/>
      <point x="2112" y="316" type="curve"/>
      <point x="2520" y="315" type="line"/>
      <point x="2520" y="959" type="line" smooth="yes"/>
      <point x="2520" y="989"/>
      <point x="2537" y="1006"/>
      <point x="2567" y="1006" type="curve" smooth="yes"/>
      <point x="2646" y="1006" type="line" smooth="yes"/>
      <point x="2676" y="1006"/>
      <point x="2693" y="989"/>
      <point x="2693" y="959" type="curve" smooth="yes"/>
      <point x="2693" y="315" type="line"/>
      <point x="2872" y="315" type="line" smooth="yes"/>
      <point x="2902" y="315"/>
      <point x="2918" y="299"/>
      <point x="2918" y="269" type="curve" smooth="yes"/>
      <point x="2918" y="248" type="line" smooth="yes"/>
      <point x="2918" y="218"/>
      <point x="2902" y="201"/>
      <point x="2872" y="201" type="curve" smooth="yes"/>
      <point x="2693" y="201" type="line"/>
      <point x="2693" y="50" type="line" smooth="yes"/>
      <point x="2693" y="20"/>
      <point x="2676" y="3"/>
      <point x="2646" y="3" type="curve" smooth="yes"/>
    </contour>
    <contour>
      <point x="758" y="-205" type="line" smooth="yes"/>
      <point x="746" y="-205"/>
      <point x="741" y="-197"/>
      <point x="741" y="-187" type="curve" smooth="yes"/>
      <point x="741" y="-182"/>
      <point x="742" y="-176"/>
      <point x="745" y="-171" type="curve" smooth="yes"/>
      <point x="1641" y="1618" type="line" smooth="yes"/>
      <point x="1651" y="1638"/>
      <point x="1653" y="1648"/>
      <point x="1680" y="1648" type="curve"/>
      <point x="1714" y="1648" type="line" smooth="yes"/>
      <point x="1812" y="1648" type="line" smooth="yes"/>
      <point x="1824" y="1648"/>
      <point x="1829" y="1640"/>
      <point x="1829" y="1629" type="curve" smooth="yes"/>
      <point x="1829" y="1624"/>
      <point x="1828" y="1618"/>
      <point x="1826" y="1613" type="curve" smooth="yes"/>
      <point x="1825" y="1613"/>
      <point x="940" y="-170"/>
      <point x="940" y="-170" type="curve" smooth="yes"/>
      <point x="922" y="-205"/>
      <point x="916" y="-205"/>
      <point x="890" y="-205" type="curve" smooth="yes"/>
    </contour>
  </outline>
</glyph>
<glyph name="Oslash" format="1">
  <advance width="2174"/>
  <unicode hex="00D8"/>
  <outline>
    <contour>
      <point x="784" y="-202" type="curve" smooth="yes"/>
      <point x="671" y="-200" type="line" smooth="yes"/>
      <point x="656" y="-200"/>
      <point x="647" y="-182"/>
      <point x="654" y="-167" type="curve" smooth="yes"/>
      <point x="722" y="-4" type="line"/>
      <point x="401" y="72"/>
      <point x="134" y="271"/>
      <point x="134" y="724" type="curve" smooth="yes"/>
      <point x="134" y="1295"/>
      <point x="631" y="1475"/>
      <point x="1087" y="1475" type="curve" smooth="yes"/>
      <point x="1167" y="1475"/>
      <point x="1249" y="1470"/>
      <point x="1329" y="1458" type="curve"/>
      <point x="1389" y="1602" type="line" smooth="yes"/>
      <point x="1397" y="1622"/>
      <point x="1414" y="1635"/>
      <point x="1433" y="1635" type="curve" smooth="yes"/>
      <point x="1546" y="1635" type="line" smooth="yes"/>
      <point x="1560" y="1635"/>
      <point x="1569" y="1617"/>
      <point x="1563" y="1602" type="curve" smooth="yes"/>
      <point x="1489" y="1422" type="line"/>
      <point x="1795" y="1335"/>
      <point x="2040" y="1127"/>
      <point x="2040" y="724" type="curve" smooth="yes"/>
      <point x="2040" y="106"/>
      <point x="1546" y="-41"/>
      <point x="1087" y="-41" type="curve" smooth="yes"/>
      <point x="1020" y="-41"/>
      <point x="953" y="-38"/>
      <point x="886" y="-31" type="curve"/>
      <point x="829" y="-169" type="line" smooth="yes"/>
      <point x="821" y="-189"/>
      <point x="802" y="-202"/>
    </contour>
    <contour>
      <point x="785" y="150" type="curve"/>
      <point x="1264" y="1301" type="line"/>
      <point x="1207" y="1308"/>
      <point x="1148" y="1313"/>
      <point x="1087" y="1313" type="curve" smooth="yes"/>
      <point x="683" y="1313"/>
      <point x="347" y="1145"/>
      <point x="347" y="724" type="curve" smooth="yes"/>
      <point x="347" y="362"/>
      <point x="534" y="207"/>
    </contour>
    <contour>
      <point x="1087" y="121" type="curve" smooth="yes"/>
      <point x="1481" y="121"/>
      <point x="1827" y="229"/>
      <point x="1827" y="724" type="curve" smooth="yes"/>
      <point x="1827" y="1020"/>
      <point x="1663" y="1191"/>
      <point x="1423" y="1266" type="curve"/>
      <point x="952" y="126" type="line"/>
      <point x="996" y="122"/>
      <point x="1041" y="121"/>
    </contour>
  </outline>
</glyph>
<glyph name="divide" format="1">
  <advance width="1272"/>
  <unicode hex="00F7"/>
  <outline>
    <contour>
      <point x="574" y="15" type="line" smooth="yes"/>
      <point x="531" y="15"/>
      <point x="497" y="49"/>
      <point x="497" y="92" type="curve" smooth="yes"/>
      <point x="497" y="215" type="line" smooth="yes"/>
      <point x="497" y="258"/>
      <point x="531" y="292"/>
      <point x="574" y="292" type="curve" smooth="yes"/>
      <point x="710" y="292" type="line" smooth="yes"/>
      <point x="753" y="292"/>
      <point x="787" y="258"/>
      <point x="787" y="215" type="curve" smooth="yes"/>
      <point x="787" y="92" type="line" smooth="yes"/>
      <point x="787" y="49"/>
      <point x="753" y="15"/>
      <point x="710" y="15" type="curve" smooth="yes"/>
    </contour>
    <contour>
      <point x="184" y="442" type="line" smooth="yes"/>
      <point x="141" y="442"/>
      <point x="117" y="466"/>
      <point x="117" y="509" type="curve" smooth="yes"/>
      <point x="117" y="554" type="line" smooth="yes"/>
      <point x="117" y="597"/>
      <point x="141" y="621"/>
      <point x="184" y="621" type="curve" smooth="yes"/>
      <point x="1088" y="621" type="line" smooth="yes"/>
      <point x="1131" y="621"/>
      <point x="1155" y="597"/>
      <point x="1155" y="554" type="curve" smooth="yes"/>
      <point x="1155" y="509" type="line" smooth="yes"/>
      <point x="1155" y="466"/>
      <point x="1131" y="442"/>
      <point x="1088" y="442" type="curve" smooth="yes"/>
    </contour>
    <contour>
      <point x="574" y="746" type="line" smooth="yes"/>
      <point x="531" y="746"/>
      <point x="497" y="780"/>
      <point x="497" y="823" type="curve" smooth="yes"/>
      <point x="497" y="945" type="line" smooth="yes"/>
      <point x="497" y="988"/>
      <point x="531" y="1022"/>
      <point x="574" y="1022" type="curve" smooth="yes"/>
      <point x="710" y="1022" type="line" smooth="yes"/>
      <point x="753" y="1022"/>
      <point x="787" y="988"/>
      <point x="787" y="945" type="curve" smooth="yes"/>
      <point x="787" y="823" type="line" smooth="yes"/>
      <point x="787" y="780"/>
      <point x="753" y="746"/>
      <point x="710" y="746" type="curve" smooth="yes"/>
    </contour>
  </outline>
</glyph>
<glyph name="Hbar" format="1">
  <advance width="2038"/>
  <unicode hex="0126"/>
  <outline>
    <contour>
      <point x="227" y="0" type="line" smooth="yes"/>
      <point x="184" y="0"/>
      <point x="160" y="24"/>
      <point x="160" y="67" type="curve" smooth="yes"/>
      <point x="160" y="1081" type="line"/>
      <point x="53" y="1081" type="line" smooth="yes"/>
      <point x="9" y="1081"/>
      <point x="6" y="1098"/>
      <point x="6" y="1141" type="curve" smooth="yes"/>
      <point x="6" y="1151" type="line" smooth="yes"/>
      <point x="6" y="1194"/>
      <point x="9" y="1210"/>
      <point x="53" y="1210" type="curve" smooth="yes"/>
      <point x="160" y="1210" type="line"/>
      <point x="160" y="1371" type="line" smooth="yes"/>
      <point x="160" y="1414"/>
      <point x="184" y="1438"/>
      <point x="227" y="1438" type="curve" smooth="yes"/>
      <point x="309" y="1438" type="line" smooth="yes"/>
      <point x="352" y="1438"/>
      <point x="376" y="1414"/>
      <point x="376" y="1371" type="curve" smooth="yes"/>
      <point x="376" y="1210" type="line"/>
      <point x="1663" y="1210" type="line"/>
      <point x="1663" y="1371" type="line" smooth="yes"/>
      <point x="1663" y="1414"/>
      <point x="1686" y="1438"/>
      <point x="1729" y="1438" type="curve" smooth="yes"/>
      <point x="1811" y="1438" type="line" smooth="yes"/>
      <point x="1854" y="1438"/>
      <point x="1878" y="1414"/>
      <point x="1878" y="1371" type="curve" smooth="yes"/>
      <point x="1878" y="1210" type="line"/>
      <point x="1994" y="1210" type="line" smooth="yes"/>
      <point x="2037" y="1210"/>
      <point x="2040" y="1194"/>
      <point x="2040" y="1151" type="curve" smooth="yes"/>
      <point x="2040" y="1141" type="line" smooth="yes"/>
      <point x="2040" y="1098"/>
      <point x="2037" y="1081"/>
      <point x="1994" y="1081" type="curve" smooth="yes"/>
      <point x="1878" y="1081" type="line"/>
      <point x="1878" y="67" type="line" smooth="yes"/>
      <point x="1878" y="24"/>
      <point x="1854" y="0"/>
      <point x="1811" y="0" type="curve" smooth="yes"/>
      <point x="1729" y="0" type="line" smooth="yes"/>
      <point x="1686" y="0"/>
      <point x="1663" y="24"/>
      <point x="1663" y="67" type="curve" smooth="yes"/>
      <point x="1663" y="648" type="line"/>
      <point x="1647" y="666" type="line"/>
      <point x="391" y="666" type="line" smooth="yes"/>
      <point x="392" y="666"/>
      <point x="376" y="650"/>
      <point x="376" y="650" type="curve"/>
      <point x="376" y="67" type="line" smooth="yes"/>
      <point x="376" y="24"/>
      <point x="352" y="0"/>
      <point x="309" y="0" type="curve" smooth="yes"/>
    </contour>
    <contour>
      <point x="389" y="821" type="curve" smooth="yes"/>
      <point x="1645" y="821" type="line"/>
      <point x="1645" y="821"/>
      <point x="1663" y="839"/>
      <point x="1663" y="838" type="curve" smooth="yes"/>
      <point x="1663" y="1081" type="line"/>
      <point x="376" y="1081" type="line"/>
      <point x="376" y="835" type="line"/>
      <point x="376" y="835"/>
      <point x="390" y="821"/>
    </contour>
  </outline>
</glyph>
<glyph name="Lslash" format="1">
  <advance width="1339"/>
  <unicode hex="0141"/>
  <outline>
    <contour>
      <point x="1163" y="0" type="curve" smooth="yes"/>
      <point x="227" y="0" type="line" smooth="yes"/>
      <point x="184" y="0"/>
      <point x="160" y="24"/>
      <point x="160" y="67" type="curve" smooth="yes"/>
      <point x="160" y="656" type="line"/>
      <point x="59" y="624" type="line" smooth="yes"/>
      <point x="54" y="623"/>
      <point x="49" y="622"/>
      <point x="45" y="622" type="curve" smooth="yes"/>
      <point x="13" y="622"/>
      <point x="1" y="653"/>
      <point x="1" y="692" type="curve" smooth="yes"/>
      <point x="1" y="709" type="line" smooth="yes"/>
      <point x="1" y="752"/>
      <point x="16" y="766"/>
      <point x="59" y="776" type="curve"/>
      <point x="160" y="808" type="line"/>
      <point x="160" y="1371" type="line" smooth="yes"/>
      <point x="160" y="1414"/>
      <point x="184" y="1438"/>
      <point x="227" y="1438" type="curve" smooth="yes"/>
      <point x="307" y="1438" type="line" smooth="yes"/>
      <point x="350" y="1438"/>
      <point x="374" y="1414"/>
      <point x="374" y="1371" type="curve" smooth="yes"/>
      <point x="374" y="875" type="line"/>
      <point x="739" y="988" type="line" smooth="yes"/>
      <point x="745" y="990"/>
      <point x="750" y="991"/>
      <point x="755" y="991" type="curve" smooth="yes"/>
      <point x="786" y="991"/>
      <point x="797" y="958"/>
      <point x="797" y="920" type="curve" smooth="yes"/>
      <point x="797" y="904" type="line" smooth="yes"/>
      <point x="797" y="860"/>
      <point x="780" y="848"/>
      <point x="739" y="836" type="curve" smooth="yes"/>
      <point x="374" y="723" type="line"/>
      <point x="374" y="191" type="line" smooth="yes"/>
      <point x="374" y="171"/>
      <point x="391" y="154"/>
      <point x="411" y="154" type="curve" smooth="yes"/>
      <point x="1163" y="154" type="line" smooth="yes"/>
      <point x="1206" y="154"/>
      <point x="1230" y="132"/>
      <point x="1230" y="89" type="curve" smooth="yes"/>
      <point x="1230" y="67" type="line" smooth="yes"/>
      <point x="1230" y="24"/>
      <point x="1206" y="0"/>
    </contour>
  </outline>
</glyph>
<glyph name="eng" format="1">
  <advance width="1529"/>
  <unicode hex="014B"/>
  <outline>
    <contour>
      <point x="1168" y="67" type="curve" smooth="yes"/>
      <point x="1168" y="609" type="line" smooth="yes"/>
      <point x="1168" y="836"/>
      <point x="1015" y="905"/>
      <point x="829" y="905" type="curve" smooth="yes"/>
      <point x="632" y="905"/>
      <point x="371" y="742"/>
      <point x="371" y="609" type="curve" smooth="yes"/>
      <point x="371" y="67" type="line" smooth="yes"/>
      <point x="371" y="24"/>
      <point x="348" y="0"/>
      <point x="305" y="0" type="curve" smooth="yes"/>
      <point x="219" y="0" type="line" smooth="yes"/>
      <point x="176" y="0"/>
      <point x="152" y="24"/>
      <point x="152" y="67" type="curve" smooth="yes"/>
      <point x="152" y="929" type="line" smooth="yes"/>
      <point x="152" y="972"/>
      <point x="165" y="1006"/>
      <point x="208" y="1006" type="curve" smooth="yes"/>
      <point x="226" y="1006" type="line" smooth="yes"/>
      <point x="273" y="1006"/>
      <point x="295" y="992"/>
      <point x="305" y="942" type="curve" smooth="yes"/>
      <point x="331" y="824" type="line"/>
      <point x="336" y="816"/>
      <point x="338" y="811"/>
      <point x="346" y="811" type="curve" smooth="yes"/>
      <point x="354" y="811"/>
      <point x="360" y="819"/>
      <point x="366" y="826" type="curve" smooth="yes"/>
      <point x="496" y="987"/>
      <point x="680" y="1052"/>
      <point x="869" y="1052" type="curve" smooth="yes"/>
      <point x="1177" y="1052"/>
      <point x="1386" y="888"/>
      <point x="1386" y="553" type="curve" smooth="yes"/>
      <point x="1386" y="6" type="line" smooth="yes"/>
      <point x="1386" y="-257"/>
      <point x="1272" y="-379"/>
      <point x="968" y="-379" type="curve" smooth="yes"/>
      <point x="964" y="-379" type="line" smooth="yes"/>
      <point x="964" y="-379"/>
      <point x="878" y="-379"/>
      <point x="880" y="-380" type="curve"/>
      <point x="837" y="-380"/>
      <point x="822" y="-356"/>
      <point x="822" y="-313" type="curve" smooth="yes"/>
      <point x="822" y="-268" type="line" smooth="yes"/>
      <point x="822" y="-225"/>
      <point x="837" y="-207"/>
      <point x="880" y="-207" type="curve" smooth="yes"/>
      <point x="1005" y="-207" type="line" smooth="yes"/>
      <point x="1167" y="-207"/>
      <point x="1168" y="-105"/>
    </contour>
  </outline>
</glyph>
<glyph name="Tbar" format="1">
  <advance width="1683"/>
  <unicode hex="0166"/>
  <outline>
    <contour>
      <point x="800" y="0" type="line" smooth="yes"/>
      <point x="757" y="0"/>
      <point x="733" y="24"/>
      <point x="733" y="67" type="curve" smooth="yes"/>
      <point x="733" y="664" type="line"/>
      <point x="342" y="664" type="line" smooth="yes"/>
      <point x="299" y="664"/>
      <point x="296" y="699"/>
      <point x="296" y="742" type="curve" smooth="yes"/>
      <point x="296" y="764" type="line" smooth="yes"/>
      <point x="296" y="807"/>
      <point x="299" y="839"/>
      <point x="342" y="839" type="curve" smooth="yes"/>
      <point x="733" y="839" type="line"/>
      <point x="733" y="1258" type="line" smooth="yes"/>
      <point x="733" y="1278"/>
      <point x="726" y="1283"/>
      <point x="706" y="1283" type="curve" smooth="yes"/>
      <point x="144" y="1283" type="line" smooth="yes"/>
      <point x="101" y="1283"/>
      <point x="77" y="1317"/>
      <point x="77" y="1360" type="curve" smooth="yes"/>
      <point x="77" y="1361" type="line" smooth="yes"/>
      <point x="77" y="1404"/>
      <point x="101" y="1438"/>
      <point x="144" y="1438" type="curve" smooth="yes"/>
      <point x="1535" y="1438" type="line" smooth="yes"/>
      <point x="1578" y="1438"/>
      <point x="1602" y="1404"/>
      <point x="1602" y="1361" type="curve" smooth="yes"/>
      <point x="1602" y="1360" type="line" smooth="yes"/>
      <point x="1602" y="1317"/>
      <point x="1578" y="1283"/>
      <point x="1535" y="1283" type="curve" smooth="yes"/>
      <point x="975" y="1283" type="line" smooth="yes"/>
      <point x="955" y="1283"/>
      <point x="949" y="1278"/>
      <point x="949" y="1258" type="curve" smooth="yes"/>
      <point x="949" y="839" type="line"/>
      <point x="1349" y="839" type="line" smooth="yes"/>
      <point x="1392" y="839"/>
      <point x="1395" y="807"/>
      <point x="1395" y="764" type="curve" smooth="yes"/>
      <point x="1395" y="742" type="line" smooth="yes"/>
      <point x="1395" y="699"/>
      <point x="1392" y="664"/>
      <point x="1349" y="664" type="curve" smooth="yes"/>
      <point x="949" y="664" type="line"/>
      <point x="949" y="67" type="line" smooth="yes"/>
      <point x="949" y="24"/>
      <point x="925" y="0"/>
      <point x="882" y="0" type="curve" smooth="yes"/>
    </contour>
  </outline>
</glyph>
<glyph name="ogonek" format="1">
  <advance width="716"/>
  <unicode hex="02DB"/>
  <outline>
    <contour>
      <point x="413" y="-388" type="line" smooth="yes"/>
      <point x="255" y="-388"/>
      <point x="182" y="-286"/>
      <point x="182" y="-198" type="curve" smooth="yes"/>
      <point x="182" y="-44"/>
      <point x="290" y="16"/>
      <point x="429" y="16" type="curve"/>
      <point x="432" y="-17" type="line"/>
      <point x="366" y="-17"/>
      <point x="329" y="-77"/>
      <point x="329" y="-137" type="curve" smooth="yes"/>
      <point x="329" y="-213"/>
      <point x="345" y="-290"/>
      <point x="460" y="-290" type="curve" smooth="yes"/>
      <point x="479" y="-290" type="line"/>
      <point x="479" y="-290"/>
      <point x="495" y="-289"/>
      <point x="495" y="-300" type="curve" smooth="yes"/>
      <point x="495" y="-371" type="line" smooth="yes"/>
      <point x="495" y="-381"/>
      <point x="492" y="-388"/>
      <point x="479" y="-388" type="curve" smooth="yes"/>
    </contour>
  </outline>
</glyph>
<glyph name="uniFB02" format="1">
  <advance width="1696"/>
  <unicode hex="FB02"/>
  <outline>
    <contour>
      <point x="438" y="0" type="line" smooth="yes"/>
      <point x="395" y="0"/>
      <point x="361" y="34"/>
      <point x="361" y="77" type="curve" smooth="yes"/>
      <point x="361" y="823" type="line" smooth="yes"/>
      <point x="361" y="843"/>
      <point x="361" y="860"/>
      <point x="341" y="860" type="curve" smooth="yes"/>
      <point x="189" y="860" type="line" smooth="yes"/>
      <point x="146" y="860"/>
      <point x="122" y="869"/>
      <point x="122" y="912" type="curve" smooth="yes"/>
      <point x="122" y="945" type="line" smooth="yes"/>
      <point x="122" y="988"/>
      <point x="146" y="1006"/>
      <point x="189" y="1006" type="curve" smooth="yes"/>
      <point x="339" y="1006" type="line" smooth="yes"/>
      <point x="361" y="1006"/>
      <point x="362" y="1019"/>
      <point x="362" y="1041" type="curve" smooth="yes"/>
      <point x="361" y="1381"/>
      <point x="652" y="1475"/>
      <point x="941" y="1475" type="curve" smooth="yes"/>
      <point x="1234" y="1475"/>
      <point x="1358" y="1441"/>
      <point x="1469" y="1419" type="curve"/>
      <point x="1512" y="1414"/>
      <point x="1536" y="1395"/>
      <point x="1536" y="1352" type="curve" smooth="yes"/>
      <point x="1536" y="67" type="line" smooth="yes"/>
      <point x="1536" y="24"/>
      <point x="1512" y="0"/>
      <point x="1469" y="0" type="curve" smooth="yes"/>
      <point x="1384" y="0" type="line" smooth="yes"/>
      <point x="1341" y="0"/>
      <point x="1318" y="24"/>
      <point x="1318" y="67" type="curve" smooth="yes"/>
      <point x="1318" y="1301" type="line"/>
      <point x="1228" y="1311"/>
      <point x="1080" y="1327"/>
      <point x="993" y="1327" type="curve" smooth="yes"/>
      <point x="639" y="1327"/>
      <point x="579" y="1200"/>
      <point x="579" y="1060" type="curve" smooth="yes"/>
      <point x="579" y="1017" type="line" smooth="yes"/>
      <point x="579" y="1014"/>
      <point x="581" y="1006"/>
      <point x="591" y="1006" type="curve" smooth="yes"/>
      <point x="996" y="1006" type="line" smooth="yes"/>
      <point x="1039" y="1006"/>
      <point x="1063" y="994"/>
      <point x="1063" y="951" type="curve" smooth="yes"/>
      <point x="1063" y="912" type="line" smooth="yes"/>
      <point x="1063" y="869"/>
      <point x="1039" y="860"/>
      <point x="996" y="860" type="curve" smooth="yes"/>
      <point x="602" y="860" type="line" smooth="yes"/>
      <point x="582" y="860"/>
      <point x="579" y="843"/>
      <point x="579" y="823" type="curve" smooth="yes"/>
      <point x="579" y="77" type="line" smooth="yes"/>
      <point x="579" y="34"/>
      <point x="545" y="0"/>
      <point x="502" y="0" type="curve" smooth="yes"/>
    </contour>
  </outline>
</glyph>
<glyph name="uniFB03" format="1">
  <advance width="2380"/>
  <unicode hex="FB03"/>
  <outline>
    <contour>
      <point x="438" y="0" type="line" smooth="yes"/>
      <point x="395" y="0"/>
      <point x="361" y="34"/>
      <point x="361" y="77" type="curve" smooth="yes"/>
      <point x="361" y="823" type="line" smooth="yes"/>
      <point x="361" y="843"/>
      <point x="361" y="860"/>
      <point x="341" y="860" type="curve" smooth="yes"/>
      <point x="189" y="860" type="line" smooth="yes"/>
      <point x="146" y="860"/>
      <point x="122" y="869"/>
      <point x="122" y="912" type="curve" smooth="yes"/>
      <point x="122" y="945" type="line" smooth="yes"/>
      <point x="122" y="988"/>
      <point x="146" y="1006"/>
      <point x="189" y="1006" type="curve" smooth="yes"/>
      <point x="339" y="1006" type="line" smooth="yes"/>
      <point x="361" y="1006"/>
      <point x="362" y="1019"/>
      <point x="362" y="1041" type="curve" smooth="yes"/>
      <point x="361" y="1381"/>
      <point x="564" y="1475"/>
      <point x="765" y="1475" type="curve" smooth="yes"/>
      <point x="869" y="1475"/>
      <point x="981" y="1441"/>
      <point x="995" y="1438" type="curve" smooth="yes"/>
      <point x="1023" y="1431"/>
      <point x="1045" y="1416"/>
      <point x="1045" y="1388" type="curve" smooth="yes"/>
      <point x="1045" y="1337" type="line" smooth="yes"/>
      <point x="1045" y="1300"/>
      <point x="1038" y="1293"/>
      <point x="1004" y="1293" type="curve" smooth="yes"/>
      <point x="999" y="1293"/>
      <point x="877" y="1327"/>
      <point x="818" y="1327" type="curve" smooth="yes"/>
      <point x="613" y="1327"/>
      <point x="579" y="1200"/>
      <point x="579" y="1060" type="curve" smooth="yes"/>
      <point x="579" y="1017" type="line" smooth="yes"/>
      <point x="579" y="1014"/>
      <point x="581" y="1006"/>
      <point x="591" y="1006" type="curve" smooth="yes"/>
      <point x="1160" y="1006" type="line" smooth="yes"/>
      <point x="1182" y="1006"/>
      <point x="1183" y="1019"/>
      <point x="1183" y="1041" type="curve" smooth="yes"/>
      <point x="1182" y="1381"/>
      <point x="1380" y="1475"/>
      <point x="1576" y="1475" type="curve" smooth="yes"/>
      <point x="1678" y="1475"/>
      <point x="1788" y="1441"/>
      <point x="1802" y="1438" type="curve" smooth="yes"/>
      <point x="1830" y="1431"/>
      <point x="1852" y="1416"/>
      <point x="1852" y="1388" type="curve" smooth="yes"/>
      <point x="1852" y="1337" type="line" smooth="yes"/>
      <point x="1852" y="1300"/>
      <point x="1845" y="1293"/>
      <point x="1811" y="1293" type="curve" smooth="yes"/>
      <point x="1806" y="1293"/>
      <point x="1686" y="1327"/>
      <point x="1628" y="1327" type="curve" smooth="yes"/>
      <point x="1432" y="1327"/>
      <point x="1400" y="1200"/>
      <point x="1400" y="1060" type="curve" smooth="yes"/>
      <point x="1400" y="1017" type="line" smooth="yes"/>
      <point x="1400" y="1014"/>
      <point x="1402" y="1006"/>
      <point x="1412" y="1006" type="curve" smooth="yes"/>
      <point x="2154" y="1006" type="line" smooth="yes"/>
      <point x="2197" y="1006"/>
      <point x="2221" y="982"/>
      <point x="2221" y="939" type="curve" smooth="yes"/>
      <point x="2221" y="67" type="line" smooth="yes"/>
      <point x="2221" y="24"/>
      <point x="2197" y="0"/>
      <point x="2154" y="0" type="curve" smooth="yes"/>
      <point x="2069" y="0" type="line" smooth="yes"/>
      <point x="2026" y="0"/>
      <point x="2002" y="24"/>
      <point x="2002" y="67" type="curve" smooth="yes"/>
      <point x="2002" y="860" type="line"/>
      <point x="1423" y="860" type="line" smooth="yes"/>
      <point x="1403" y="860"/>
      <point x="1400" y="843"/>
      <point x="1400" y="823" type="curve" smooth="yes"/>
      <point x="1400" y="77" type="line" smooth="yes"/>
      <point x="1400" y="34"/>
      <point x="1366" y="0"/>
      <point x="1323" y="0" type="curve" smooth="yes"/>
      <point x="1259" y="0" type="line" smooth="yes"/>
      <point x="1216" y="0"/>
      <point x="1182" y="34"/>
      <point x="1182" y="77" type="curve" smooth="yes"/>
      <point x="1182" y="823" type="line" smooth="yes"/>
      <point x="1182" y="843"/>
      <point x="1182" y="860"/>
      <point x="1162" y="860" type="curve" smooth="yes"/>
      <point x="602" y="860" type="line" smooth="yes"/>
      <point x="582" y="860"/>
      <point x="579" y="843"/>
      <point x="579" y="823" type="curve" smooth="yes"/>
      <point x="579" y="77" type="line" smooth="yes"/>
      <point x="579" y="34"/>
      <point x="545" y="0"/>
      <point x="502" y="0" type="curve" smooth="yes"/>
    </contour>
    <contour>
      <point x="2069" y="1180" type="line" smooth="yes"/>
      <point x="2026" y="1180"/>
      <point x="2002" y="1203"/>
      <point x="2002" y="1246" type="curve" smooth="yes"/>
      <point x="2002" y="1341" type="line" smooth="yes"/>
      <point x="2002" y="1384"/>
      <point x="2026" y="1408"/>
      <point x="2069" y="1408" type="curve" smooth="yes"/>
      <point x="2154" y="1408" type="line" smooth="yes"/>
      <point x="2197" y="1408"/>
      <point x="2221" y="1384"/>
      <point x="2221" y="1341" type="curve" smooth="yes"/>
      <point x="2221" y="1246" type="line" smooth="yes"/>
      <point x="2221" y="1203"/>
      <point x="2197" y="1180"/>
      <point x="2154" y="1180" type="curve" smooth="yes"/>
    </contour>
  </outline>
</glyph>
